<svg xmlns="http://www.w3.org/2000/svg" viewBox="0 0 1600 1000">
<rect width="1600" height="1000" fill="#feefc3"/>
<g fill="#b06000" opacity="0.12" transform="translate(1280,-60) scale(4.0)"><ellipse cx="50" cy="19" rx="12.5" ry="19"/><ellipse cx="50" cy="81" rx="12.5" ry="19"/><ellipse cx="19" cy="50" rx="19" ry="12.5"/><ellipse cx="81" cy="50" rx="19" ry="12.5"/><ellipse cx="50" cy="19" rx="12.5" ry="19" transform="rotate(45 50 50)"/><ellipse cx="50" cy="81" rx="12.5" ry="19" transform="rotate(45 50 50)"/><ellipse cx="19" cy="50" rx="19" ry="12.5" transform="rotate(45 50 50)"/><ellipse cx="81" cy="50" rx="19" ry="12.5" transform="rotate(45 50 50)"/><circle cx="50" cy="50" r="13"/></g>

<rect x="260" y="150" width="1080" height="700" rx="36" fill="#ffffff"/>
<circle cx="322" cy="214" r="10" fill="#feefc3"/><circle cx="356" cy="214" r="10" fill="#feefc3"/><circle cx="390" cy="214" r="10" fill="#feefc3"/>
<rect x="320" y="270" width="420" height="44" rx="22" fill="#3f2e00" opacity="0.88"/>
<rect x="320" y="342" width="620" height="20" rx="10" fill="#3f2e00" opacity="0.24"/>
<rect x="320" y="404" width="960" height="86" rx="24" fill="#feefc3"/>
<rect x="320" y="506" width="960" height="86" rx="24" fill="#feefc3" opacity="0.72"/>
<rect x="320" y="608" width="960" height="86" rx="24" fill="#feefc3" opacity="0.5"/>
<rect x="320" y="730" width="260" height="60" rx="30" fill="#b06000"/>
<text x="352" y="770" font-family='DM Sans, system-ui, sans-serif' font-size="26" font-weight="700" fill="#ffffff">Primary action</text>

<text x="110" y="952" font-family='DM Sans, system-ui, sans-serif' font-size="26" font-weight="600" fill="#3f2e00" opacity="0.55">Atlas adoption scoreboard — replace with your own image</text>
</svg>
