<svg xmlns="http://www.w3.org/2000/svg" viewBox="0 0 800 800">
<defs><linearGradient id="g" x1="0" y1="0" x2="1" y2="1">
<stop offset="0" stop-color="#4285f4"/><stop offset="1" stop-color="#0b57d0"/></linearGradient></defs>
<rect width="800" height="800" fill="url(#g)"/>
<circle cx="660" cy="120" r="180" fill="#ffffff" opacity="0.12"/>
<g transform="translate(220,220) scale(3.6)" fill="#ffffff" opacity="0.95">
<ellipse cx="50" cy="19" rx="12.5" ry="19"/><ellipse cx="50" cy="81" rx="12.5" ry="19"/>
<ellipse cx="19" cy="50" rx="19" ry="12.5"/><ellipse cx="81" cy="50" rx="19" ry="12.5"/>
<ellipse cx="50" cy="19" rx="12.5" ry="19" transform="rotate(45 50 50)"/>
<ellipse cx="50" cy="81" rx="12.5" ry="19" transform="rotate(45 50 50)"/>
<ellipse cx="19" cy="50" rx="19" ry="12.5" transform="rotate(45 50 50)"/>
<ellipse cx="81" cy="50" rx="19" ry="12.5" transform="rotate(45 50 50)"/>
<circle cx="50" cy="50" r="13"/></g>
<circle cx="365" cy="390" r="16" fill="#0b57d0"/>
<circle cx="435" cy="390" r="16" fill="#0b57d0"/>
<path d="M355 440 q45 42 90 0" stroke="#0b57d0" stroke-width="16" stroke-linecap="round" fill="none"/>
<text x="400" y="756" text-anchor="middle" font-family="Verdana, sans-serif" font-size="30" fill="#ffffff" opacity="0.8">replace with your photo</text>
</svg>